PathFileType	4	(X/Y/Z)	Run_200 01
DataRate	CameraRate	NumFrames	NumMarkers	Units	OrigDataRate	OrigDataStartFrame	OrigNumFrames
120	120	6	42	mm	120	556	128
Frame#	Time	LASI			RASI			LPSI			RPSI			RTH1			RTH2			RTH3			LTH1			LTH2			LTH3			RTB1			RTB2			RTB3			LTB1			LTB2			LTB3			RCAL			RTOE			RMT5			LCAL			LTOE			LMT5			LACR			RACR			CLAV			C7			RUA1			RUA2			RUA3			RLEL			LUA1			LUA2			LUA3			LLEL			RFAsuperior			RFAradius			RFAulna			LFAsuperior			LFAradius			LFAulna			LMEL			RMEL		
		X1	Y1	Z1	X2	Y2	Z2	X3	Y3	Z3	X4	Y4	Z4	X5	Y5	Z5	X6	Y6	Z6	X7	Y7	Z7	X8	Y8	Z8	X9	Y9	Z9	X10	Y10	Z10	X11	Y11	Z11	X12	Y12	Z12	X13	Y13	Z13	X14	Y14	Z14	X15	Y15	Z15	X16	Y16	Z16	X17	Y17	Z17	X18	Y18	Z18	X19	Y19	Z19	X20	Y20	Z20	X21	Y21	Z21	X22	Y22	Z22	X23	Y23	Z23	X24	Y24	Z24	X25	Y25	Z25	X26	Y26	Z26	X27	Y27	Z27	X28	Y28	Z28	X29	Y29	Z29	X30	Y30	Z30	X31	Y31	Z31	X32	Y32	Z32	X33	Y33	Z33	X34	Y34	Z34	X35	Y35	Z35	X36	Y36	Z36	X37	Y37	Z37	X38	Y38	Z38	X39	Y39	Z39	X40	Y40	Z40	X41	Y41	Z41	X42	Y42	Z42	

556	  4.633333	1072.637973	1050.677463	-438.276746	1053.744912	1063.543178	-206.730485	904.628772	1096.089983	-388.060813	894.108084	1096.405952	-289.612755	1023.108960	901.555314	-151.281976	1130.834453	775.549706	-177.951774	1103.292608	674.243396	-195.970208	978.791901	888.358636	-501.222759	1022.348608	775.195038	-475.265898	922.330791	671.047771	-461.975744	1220.160843	469.481946	-256.684130	1177.091715	401.864161	-199.425584	1237.068670	290.855706	-265.457801	870.115625	429.971971	-404.465623	775.477054	383.086096	-452.334727	736.574525	288.365074	-388.488101	1143.206476	139.364408	-305.068656	1354.050186	140.287804	-318.829858	1339.407989	 83.623723	-226.948165	582.144180	287.042087	-376.405924	681.457801	111.281068	-327.778160	641.446564	 88.188174	-428.416642	1066.214048	1534.675399	-507.059760	1007.094178	1527.060215	-153.041630	1098.218656	1480.937298	-292.109561	998.562203	1564.341053	-343.517294	948.786813	1472.042701	-113.490988	921.983501	1386.183603	-130.735442	844.731895	1421.173548	-149.364848	767.797362	1332.858810	-140.266139	1043.926019	1462.894936	-564.989702	975.106448	1418.521762	-562.431504	1032.747274	1360.608337	-593.661195	961.902566	1262.923076	-635.825074	812.565842	1256.851243	-105.804613	871.845349	1075.874490	-104.449542	810.803952	1066.388187	-131.790712	1039.355688	1264.496423	-601.835544	1159.282615	1287.754563	-454.472455	1163.257485	1221.081760	-454.686158	908.484369	1264.199194	-580.561344	778.723477	1331.367175	-205.975344	
557	  4.641667	1073.923288	1050.543028	-437.834567	1054.325886	1062.044634	-206.640234	906.022760	1095.243547	-388.618272	894.676473	1095.058500	-289.839332	1022.509525	899.662284	-150.786091	1132.398831	773.658822	-178.448254	1103.908392	672.667736	-196.742240	982.664791	886.453269	-500.571342	1027.953044	773.818706	-473.694070	929.650600	668.068164	-461.773952	1219.730636	468.195848	-257.687749	1175.936947	400.278379	-201.224707	1235.912733	289.364092	-267.172174	874.626647	428.284243	-404.258836	778.534975	384.888274	-452.405515	735.914519	291.501097	-388.954993	1141.405029	139.296879	-308.833131	1352.581857	136.897484	-319.076908	1335.394299	 80.516245	-227.779534	582.884434	297.219972	-378.723020	671.997261	116.415804	-328.541173	631.939006	 94.986445	-428.979451	1065.226265	1534.163798	-505.653265	1008.176101	1525.060783	-151.322025	1098.445686	1479.804523	-291.214555	998.777567	1563.302062	-341.731701	950.071795	1469.789383	-111.564089	923.294176	1383.964932	-129.287176	845.892195	1418.987493	-147.276470	769.157283	1330.490320	-138.280328	1042.358482	1462.993480	-563.920578	973.615163	1418.845960	-561.358110	1031.303114	1361.113434	-593.459655	959.753697	1264.281671	-636.225309	814.726642	1254.694360	-104.443398	875.905448	1074.367946	-103.968704	814.907613	1064.249984	-130.985519	1037.388514	1264.109657	-602.510018	1157.300296	1284.106167	-454.499341	1160.698020	1217.430811	-455.716097	906.517941	1265.544716	-581.186724	779.769371	1329.292419	-204.145052	
558	  4.650000	1075.093767	1049.757348	-437.319348	1054.697288	1060.152453	-206.410049	906.932927	1093.286254	-389.247564	895.071359	1092.926273	-290.169291	1022.262722	897.618480	-150.046789	1134.404284	771.761442	-178.987615	1104.969861	671.042307	-197.619594	987.348490	883.320145	-499.801332	1034.571323	771.601659	-471.570193	937.715634	664.124403	-461.446479	1219.091610	465.884285	-259.098838	1174.206701	398.068060	-203.356088	1232.972609	286.733893	-269.204931	879.968946	426.043491	-403.829558	782.661250	386.098508	-452.514742	735.938521	294.503963	-389.443946	1136.525671	138.712976	-312.299481	1347.889284	131.868319	-319.993538	1328.337246	 75.788472	-229.209220	584.191279	307.033138	-381.276622	663.659586	122.122402	-329.436797	623.694255	102.153102	-429.771828	1064.280342	1532.945313	-504.264109	1009.245662	1522.294118	-149.624895	1098.653536	1477.935005	-290.388622	998.890795	1561.633446	-339.896565	951.480604	1466.479600	-109.496185	924.770093	1380.704234	-127.848399	847.186325	1415.667186	-144.906521	770.723843	1327.026868	-135.941888	1040.693536	1462.423580	-562.853397	971.859762	1418.562482	-559.979519	1029.407911	1360.981824	-593.175340	957.089525	1265.037389	-636.458301	817.221784	1251.461343	-102.853634	880.349298	1071.850787	-103.423524	819.494341	1061.044769	-130.174108	1034.910246	1262.854638	-603.140852	1155.262265	1278.862678	-454.679986	1157.708175	1212.224412	-457.141773	904.333209	1266.286282	-581.698017	780.911327	1326.162728	-202.065156	
559	  4.658333	1076.152410	1048.286899	-436.792852	1054.901873	1057.883243	-206.114609	907.464398	1090.213292	-389.990039	895.407190	1089.987445	-290.627516	1022.347170	895.297947	-149.524458	1136.605589	770.015899	-179.256655	1106.163185	669.257267	-198.566708	992.649587	879.323342	-499.069154	1041.858012	768.749191	-469.141874	946.397205	659.413087	-461.035971	1218.114501	462.482147	-260.861981	1171.922317	395.221361	-205.594312	1228.514681	283.023051	-271.350187	885.931360	423.483953	-403.189038	787.700915	386.852947	-452.709312	736.561759	297.606728	-389.977340	1129.082344	137.633732	-314.963342	1340.247381	125.210174	-321.901728	1318.912574	 69.595182	-231.238519	585.694265	316.407730	-384.000660	657.064353	128.587469	-330.496562	617.320623	109.661206	-430.805418	1063.444029	1530.972744	-502.895497	1010.266012	1518.779457	-148.000997	1098.840654	1475.314292	-289.612324	998.876149	1559.335615	-338.046768	952.970208	1462.192521	-107.271210	926.389803	1376.464242	-126.370110	848.606973	1411.236617	-142.251904	772.501647	1322.443073	-133.298791	1039.073476	1461.188451	-561.736840	969.977858	1417.688110	-558.303427	1027.106246	1360.200117	-592.835229	953.943243	1265.159579	-636.484160	820.045104	1247.164375	-101.049525	885.177187	1068.345413	-102.787325	824.479341	1056.866005	-129.313568	1031.898119	1260.794924	-603.666431	1153.133930	1272.084848	-454.999372	1154.227582	1205.566832	-459.159242	901.788672	1266.454058	-581.894151	782.142477	1321.972405	-199.715827	
560	  4.666667	1077.103091	1046.079149	-436.323100	1054.992805	1055.246565	-205.746152	907.810409	1086.084354	-390.832239	895.802556	1086.086303	-291.348834	1022.902536	892.566159	-149.636614	1138.827561	768.445645	-179.087666	1107.245035	667.132341	-199.573079	998.282377	874.795669	-498.534403	1049.453852	765.417274	-466.750246	955.636789	654.081787	-460.695057	1216.667613	458.059680	-262.847860	1169.167896	391.792729	-207.613290	1222.887880	278.361371	-273.416556	892.393299	420.734259	-402.463325	793.457456	387.349348	-453.008449	737.782158	300.939836	-390.591728	1119.630685	136.228936	-316.512215	1329.996020	116.817464	-325.003388	1307.644826	 62.382637	-233.653434	587.153673	325.269107	-386.869676	652.668960	135.782345	-331.729099	613.366270	117.360066	-432.077525	1062.736511	1528.185928	-501.559316	1011.213674	1514.531870	-146.447299	1098.996357	1471.935465	-288.854189	998.768768	1556.369531	-336.251631	954.489308	1457.008643	-104.951178	928.127011	1371.304869	-124.804634	850.115038	1405.738048	-139.325866	774.484239	1316.713162	-130.421880	1037.573402	1459.263936	-560.579413	968.071809	1416.231776	-556.419916	1024.463677	1358.731373	-592.433973	950.368154	1264.629487	-636.294868	823.171847	1241.816838	-99.059464	890.382803	1063.885039	-102.045097	829.744692	1051.750229	-128.307801	1028.359993	1257.983326	-604.024983	1150.843659	1263.861857	-455.519036	1150.207422	1197.589707	-461.920390	898.774463	1266.081562	-581.634564	783.439057	1316.720491	-197.082658	
561	  4.675000	1077.964536	1043.083648	-435.978651	1055.037048	1052.211018	-205.261929	908.138657	1081.017381	-391.682120	896.303098	1081.060796	-292.427540	1024.137495	889.383699	-150.489765	1140.883394	766.726474	-178.680755	1108.038791	664.415619	-200.638740	1003.953850	869.886290	-498.273956	1057.041139	761.680922	-464.736431	965.352251	648.234706	-460.615840	1214.680811	452.742761	-264.885491	1166.029774	387.804896	-209.160827	1216.281225	272.869471	-275.361662	899.329705	417.812169	-401.816983	799.763062	387.800283	-453.425495	739.691176	304.474947	-391.364269	1108.463419	134.473367	-316.973014	1317.449049	107.032333	-329.170452	1294.882085	 55.135870	-235.994491	588.604979	333.568133	-389.861129	650.610001	143.439661	-333.145403	612.035735	125.030999	-433.601365	1062.126649	1524.554416	-500.274242	1012.078159	1509.568329	-144.914204	1099.103119	1467.803434	-288.084046	998.643163	1552.686031	-334.593179	955.992195	1450.994414	-102.654793	929.954242	1365.268400	-123.140368	851.640684	1399.220529	-136.174407	776.644134	1309.840710	-127.374691	1036.182899	1456.606779	-559.429665	966.178836	1414.183562	-554.473282	1021.553656	1356.529030	-591.936021	946.416099	1263.447544	-635.936900	826.568480	1235.439176	-96.905331	895.952992	1058.509330	-101.210901	835.222099	1045.701239	-127.082057	1024.327020	1254.452321	-604.197249	1148.281384	1254.320714	-456.364676	1145.613929	1188.419720	-465.348487	895.304744	1265.162630	-580.942792	784.787893	1310.408924	-194.192368	
